<mxfile host="app.diagrams.net" agent="Mozilla/5.0 (Windows NT 10.0; Win64; x64) AppleWebKit/537.36 (KHTML, like Gecko) Chrome/130.0.0.0 Safari/537.36" version="24.8.4">
  <diagram name="Page-1" id="74e2e168-ea6b-b213-b513-2b3c1d86103e">
    <mxGraphModel dx="1522" dy="2824" grid="1" gridSize="10" guides="1" tooltips="1" connect="1" arrows="1" fold="1" page="0" pageScale="1" pageWidth="1100" pageHeight="850" background="none" math="0" shadow="0">
      <root>
        <mxCell id="0" />
        <mxCell id="1" parent="0" />
        <mxCell id="iHUM1eOw4FRJ9FHUa8gA-21" style="edgeStyle=orthogonalEdgeStyle;rounded=0;orthogonalLoop=1;jettySize=auto;html=1;entryX=0;entryY=0.5;entryDx=0;entryDy=0;entryPerimeter=0;" edge="1" parent="1" source="iHUM1eOw4FRJ9FHUa8gA-2" target="iHUM1eOw4FRJ9FHUa8gA-18">
          <mxGeometry relative="1" as="geometry">
            <mxPoint x="220.0000000000001" y="-110" as="targetPoint" />
            <Array as="points">
              <mxPoint x="220" y="-65" />
            </Array>
          </mxGeometry>
        </mxCell>
        <mxCell id="iHUM1eOw4FRJ9FHUa8gA-2" value="nn.Embedding" style="rounded=0;whiteSpace=wrap;html=1;" vertex="1" parent="1">
          <mxGeometry x="160" width="120" height="40" as="geometry" />
        </mxCell>
        <mxCell id="iHUM1eOw4FRJ9FHUa8gA-3" value="input_ids=24x256" style="text;html=1;align=left;verticalAlign=middle;whiteSpace=wrap;rounded=0;" vertex="1" parent="1">
          <mxGeometry x="-500" y="-820" width="110" height="30" as="geometry" />
        </mxCell>
        <mxCell id="iHUM1eOw4FRJ9FHUa8gA-4" value="batch_size=24" style="text;html=1;align=left;verticalAlign=middle;whiteSpace=wrap;rounded=0;" vertex="1" parent="1">
          <mxGeometry x="-500" y="-670" width="110" height="30" as="geometry" />
        </mxCell>
        <mxCell id="iHUM1eOw4FRJ9FHUa8gA-5" value="max_seq_length=256" style="text;html=1;align=left;verticalAlign=middle;whiteSpace=wrap;rounded=0;" vertex="1" parent="1">
          <mxGeometry x="-500" y="-630" width="110" height="30" as="geometry" />
        </mxCell>
        <mxCell id="iHUM1eOw4FRJ9FHUa8gA-6" value="区分样本中句子A和B：token_type_ids=24x256" style="text;html=1;align=left;verticalAlign=middle;whiteSpace=wrap;rounded=0;" vertex="1" parent="1">
          <mxGeometry x="-500" y="-780" width="260" height="30" as="geometry" />
        </mxCell>
        <mxCell id="iHUM1eOw4FRJ9FHUa8gA-7" value="attention_mask=24x256" style="text;html=1;align=left;verticalAlign=middle;whiteSpace=wrap;rounded=0;" vertex="1" parent="1">
          <mxGeometry x="-500" y="-740" width="110" height="30" as="geometry" />
        </mxCell>
        <mxCell id="iHUM1eOw4FRJ9FHUa8gA-8" value="24个样本分别属于的类别：label=1x24" style="text;html=1;align=left;verticalAlign=middle;whiteSpace=wrap;rounded=0;" vertex="1" parent="1">
          <mxGeometry x="-500" y="-700" width="210" height="30" as="geometry" />
        </mxCell>
        <mxCell id="iHUM1eOw4FRJ9FHUa8gA-10" value="input_ids 24x256" style="text;html=1;align=center;verticalAlign=middle;whiteSpace=wrap;rounded=0;" vertex="1" parent="1">
          <mxGeometry x="110" y="50" width="110" height="30" as="geometry" />
        </mxCell>
        <mxCell id="iHUM1eOw4FRJ9FHUa8gA-11" value="token_type_ids 24x256" style="text;html=1;align=center;verticalAlign=middle;whiteSpace=wrap;rounded=0;" vertex="1" parent="1">
          <mxGeometry x="240" y="50" width="140" height="30" as="geometry" />
        </mxCell>
        <mxCell id="iHUM1eOw4FRJ9FHUa8gA-20" value="" style="edgeStyle=orthogonalEdgeStyle;rounded=0;orthogonalLoop=1;jettySize=auto;html=1;" edge="1" parent="1" source="iHUM1eOw4FRJ9FHUa8gA-12" target="iHUM1eOw4FRJ9FHUa8gA-18">
          <mxGeometry relative="1" as="geometry" />
        </mxCell>
        <mxCell id="iHUM1eOw4FRJ9FHUa8gA-12" value="nn.Embedding" style="rounded=0;whiteSpace=wrap;html=1;" vertex="1" parent="1">
          <mxGeometry x="320" width="120" height="40" as="geometry" />
        </mxCell>
        <mxCell id="iHUM1eOw4FRJ9FHUa8gA-13" value="nn.Embedding" style="rounded=0;whiteSpace=wrap;html=1;" vertex="1" parent="1">
          <mxGeometry x="480" width="120" height="40" as="geometry" />
        </mxCell>
        <mxCell id="iHUM1eOw4FRJ9FHUa8gA-14" value="position_ids 24x256" style="text;html=1;align=center;verticalAlign=middle;whiteSpace=wrap;rounded=0;" vertex="1" parent="1">
          <mxGeometry x="420" y="50" width="120" height="30" as="geometry" />
        </mxCell>
        <mxCell id="iHUM1eOw4FRJ9FHUa8gA-15" value="" style="endArrow=classic;html=1;rounded=0;entryX=0.5;entryY=1;entryDx=0;entryDy=0;" edge="1" parent="1" target="iHUM1eOw4FRJ9FHUa8gA-2">
          <mxGeometry width="50" height="50" relative="1" as="geometry">
            <mxPoint x="220" y="80" as="sourcePoint" />
            <mxPoint x="245" y="40" as="targetPoint" />
          </mxGeometry>
        </mxCell>
        <mxCell id="iHUM1eOw4FRJ9FHUa8gA-16" value="" style="endArrow=classic;html=1;rounded=0;entryX=0.5;entryY=1;entryDx=0;entryDy=0;" edge="1" parent="1">
          <mxGeometry width="50" height="50" relative="1" as="geometry">
            <mxPoint x="379.63" y="80" as="sourcePoint" />
            <mxPoint x="379.63" y="40" as="targetPoint" />
          </mxGeometry>
        </mxCell>
        <mxCell id="iHUM1eOw4FRJ9FHUa8gA-17" value="" style="endArrow=classic;html=1;rounded=0;entryX=0.5;entryY=1;entryDx=0;entryDy=0;" edge="1" parent="1">
          <mxGeometry width="50" height="50" relative="1" as="geometry">
            <mxPoint x="539.63" y="80" as="sourcePoint" />
            <mxPoint x="539.63" y="40" as="targetPoint" />
          </mxGeometry>
        </mxCell>
        <mxCell id="iHUM1eOw4FRJ9FHUa8gA-18" value="" style="verticalLabelPosition=bottom;verticalAlign=top;html=1;shape=mxgraph.flowchart.or;" vertex="1" parent="1">
          <mxGeometry x="365" y="-80" width="30" height="30" as="geometry" />
        </mxCell>
        <mxCell id="iHUM1eOw4FRJ9FHUa8gA-22" style="edgeStyle=orthogonalEdgeStyle;rounded=0;orthogonalLoop=1;jettySize=auto;html=1;entryX=1;entryY=0.5;entryDx=0;entryDy=0;entryPerimeter=0;" edge="1" parent="1" source="iHUM1eOw4FRJ9FHUa8gA-13" target="iHUM1eOw4FRJ9FHUa8gA-18">
          <mxGeometry relative="1" as="geometry">
            <Array as="points">
              <mxPoint x="540" y="-65" />
            </Array>
          </mxGeometry>
        </mxCell>
        <mxCell id="iHUM1eOw4FRJ9FHUa8gA-23" value="24x256x768" style="text;html=1;align=center;verticalAlign=middle;whiteSpace=wrap;rounded=0;" vertex="1" parent="1">
          <mxGeometry x="160" y="-40" width="60" height="30" as="geometry" />
        </mxCell>
        <mxCell id="iHUM1eOw4FRJ9FHUa8gA-24" value="24x256x768" style="text;html=1;align=center;verticalAlign=middle;whiteSpace=wrap;rounded=0;" vertex="1" parent="1">
          <mxGeometry x="320" y="-40" width="60" height="30" as="geometry" />
        </mxCell>
        <mxCell id="iHUM1eOw4FRJ9FHUa8gA-25" value="24x256x768" style="text;html=1;align=center;verticalAlign=middle;whiteSpace=wrap;rounded=0;" vertex="1" parent="1">
          <mxGeometry x="480" y="-40" width="60" height="30" as="geometry" />
        </mxCell>
        <mxCell id="iHUM1eOw4FRJ9FHUa8gA-26" value="" style="rounded=1;whiteSpace=wrap;html=1;fillColor=none;strokeColor=#FF0000;strokeWidth=5;dashed=1;" vertex="1" parent="1">
          <mxGeometry x="120" y="-150" width="520" height="200" as="geometry" />
        </mxCell>
        <mxCell id="iHUM1eOw4FRJ9FHUa8gA-27" value="&lt;b&gt;&lt;font color=&quot;#ff0000&quot;&gt;BERTEmbeddings&lt;/font&gt;&lt;/b&gt;" style="text;html=1;align=center;verticalAlign=middle;whiteSpace=wrap;rounded=0;" vertex="1" parent="1">
          <mxGeometry x="20" y="-30" width="60" height="30" as="geometry" />
        </mxCell>
        <mxCell id="iHUM1eOw4FRJ9FHUa8gA-28" value="&lt;div&gt;dropout&lt;/div&gt;Layer Normalization" style="rounded=0;whiteSpace=wrap;html=1;" vertex="1" parent="1">
          <mxGeometry x="320" y="-140" width="120" height="40" as="geometry" />
        </mxCell>
        <mxCell id="iHUM1eOw4FRJ9FHUa8gA-29" value="" style="endArrow=classic;html=1;rounded=0;exitX=0.5;exitY=0;exitDx=0;exitDy=0;exitPerimeter=0;entryX=0.5;entryY=1;entryDx=0;entryDy=0;" edge="1" parent="1" source="iHUM1eOw4FRJ9FHUa8gA-18" target="iHUM1eOw4FRJ9FHUa8gA-28">
          <mxGeometry width="50" height="50" relative="1" as="geometry">
            <mxPoint x="330" y="-70" as="sourcePoint" />
            <mxPoint x="380" y="-120" as="targetPoint" />
          </mxGeometry>
        </mxCell>
        <mxCell id="iHUM1eOw4FRJ9FHUa8gA-30" value="24x256x768" style="text;html=1;align=center;verticalAlign=middle;whiteSpace=wrap;rounded=0;" vertex="1" parent="1">
          <mxGeometry x="310" y="-100" width="60" height="30" as="geometry" />
        </mxCell>
        <mxCell id="iHUM1eOw4FRJ9FHUa8gA-31" value="" style="endArrow=none;html=1;rounded=0;" edge="1" parent="1">
          <mxGeometry width="50" height="50" relative="1" as="geometry">
            <mxPoint x="180" y="-200" as="sourcePoint" />
            <mxPoint x="580" y="-200" as="targetPoint" />
          </mxGeometry>
        </mxCell>
        <mxCell id="iHUM1eOw4FRJ9FHUa8gA-33" value="" style="endArrow=none;html=1;rounded=0;exitX=0.5;exitY=0;exitDx=0;exitDy=0;" edge="1" parent="1" source="iHUM1eOw4FRJ9FHUa8gA-28">
          <mxGeometry width="50" height="50" relative="1" as="geometry">
            <mxPoint x="300" y="-120" as="sourcePoint" />
            <mxPoint x="380" y="-200" as="targetPoint" />
          </mxGeometry>
        </mxCell>
        <mxCell id="iHUM1eOw4FRJ9FHUa8gA-34" value="nn.Linear(768,768)" style="rounded=0;whiteSpace=wrap;html=1;" vertex="1" parent="1">
          <mxGeometry x="120" y="-280" width="120" height="40" as="geometry" />
        </mxCell>
        <mxCell id="iHUM1eOw4FRJ9FHUa8gA-35" value="" style="endArrow=classic;html=1;rounded=0;entryX=0.5;entryY=1;entryDx=0;entryDy=0;" edge="1" parent="1" target="iHUM1eOw4FRJ9FHUa8gA-34">
          <mxGeometry width="50" height="50" relative="1" as="geometry">
            <mxPoint x="180" y="-200" as="sourcePoint" />
            <mxPoint x="350" y="-240" as="targetPoint" />
          </mxGeometry>
        </mxCell>
        <mxCell id="iHUM1eOw4FRJ9FHUa8gA-37" value="" style="endArrow=classic;html=1;rounded=0;entryX=0.5;entryY=1;entryDx=0;entryDy=0;" edge="1" parent="1">
          <mxGeometry width="50" height="50" relative="1" as="geometry">
            <mxPoint x="380" y="-200" as="sourcePoint" />
            <mxPoint x="380" y="-240" as="targetPoint" />
          </mxGeometry>
        </mxCell>
        <mxCell id="iHUM1eOw4FRJ9FHUa8gA-40" value="" style="endArrow=classic;html=1;rounded=0;entryX=0.5;entryY=1;entryDx=0;entryDy=0;" edge="1" parent="1">
          <mxGeometry width="50" height="50" relative="1" as="geometry">
            <mxPoint x="579.57" y="-200" as="sourcePoint" />
            <mxPoint x="579.57" y="-240" as="targetPoint" />
          </mxGeometry>
        </mxCell>
        <mxCell id="iHUM1eOw4FRJ9FHUa8gA-41" value="nn.Linear(768,768)" style="rounded=0;whiteSpace=wrap;html=1;" vertex="1" parent="1">
          <mxGeometry x="320" y="-280" width="120" height="40" as="geometry" />
        </mxCell>
        <mxCell id="iHUM1eOw4FRJ9FHUa8gA-42" value="nn.Linear(768,768)" style="rounded=0;whiteSpace=wrap;html=1;" vertex="1" parent="1">
          <mxGeometry x="520" y="-280" width="120" height="40" as="geometry" />
        </mxCell>
        <mxCell id="iHUM1eOw4FRJ9FHUa8gA-46" value="" style="endArrow=classic;html=1;rounded=0;" edge="1" parent="1">
          <mxGeometry width="50" height="50" relative="1" as="geometry">
            <mxPoint x="180" y="-280" as="sourcePoint" />
            <mxPoint x="180" y="-400" as="targetPoint" />
          </mxGeometry>
        </mxCell>
        <mxCell id="iHUM1eOw4FRJ9FHUa8gA-47" value="Q 24x256x768" style="text;html=1;align=center;verticalAlign=middle;whiteSpace=wrap;rounded=0;" vertex="1" parent="1">
          <mxGeometry x="80" y="-310" width="90" height="30" as="geometry" />
        </mxCell>
        <mxCell id="iHUM1eOw4FRJ9FHUa8gA-48" value="" style="endArrow=classic;html=1;rounded=0;" edge="1" parent="1">
          <mxGeometry width="50" height="50" relative="1" as="geometry">
            <mxPoint x="380" y="-280" as="sourcePoint" />
            <mxPoint x="380" y="-400" as="targetPoint" />
          </mxGeometry>
        </mxCell>
        <mxCell id="iHUM1eOw4FRJ9FHUa8gA-49" value="K 24x256x768" style="text;html=1;align=center;verticalAlign=middle;whiteSpace=wrap;rounded=0;" vertex="1" parent="1">
          <mxGeometry x="290" y="-310" width="80" height="30" as="geometry" />
        </mxCell>
        <mxCell id="iHUM1eOw4FRJ9FHUa8gA-50" value="" style="endArrow=classic;html=1;rounded=0;entryX=0.855;entryY=1.05;entryDx=0;entryDy=0;entryPerimeter=0;" edge="1" parent="1" target="iHUM1eOw4FRJ9FHUa8gA-76">
          <mxGeometry width="50" height="50" relative="1" as="geometry">
            <mxPoint x="580" y="-280" as="sourcePoint" />
            <mxPoint x="580" y="-400" as="targetPoint" />
          </mxGeometry>
        </mxCell>
        <mxCell id="iHUM1eOw4FRJ9FHUa8gA-51" value="V 24x256x768" style="text;html=1;align=center;verticalAlign=middle;whiteSpace=wrap;rounded=0;" vertex="1" parent="1">
          <mxGeometry x="490" y="-310" width="80" height="30" as="geometry" />
        </mxCell>
        <mxCell id="iHUM1eOw4FRJ9FHUa8gA-53" value="分成12个头" style="text;html=1;align=center;verticalAlign=middle;whiteSpace=wrap;rounded=0;" vertex="1" parent="1">
          <mxGeometry x="100" y="-350" width="80" height="30" as="geometry" />
        </mxCell>
        <mxCell id="iHUM1eOw4FRJ9FHUa8gA-54" value="分成12个头" style="text;html=1;align=center;verticalAlign=middle;whiteSpace=wrap;rounded=0;" vertex="1" parent="1">
          <mxGeometry x="300" y="-350" width="80" height="30" as="geometry" />
        </mxCell>
        <mxCell id="iHUM1eOw4FRJ9FHUa8gA-55" value="分成12个头" style="text;html=1;align=center;verticalAlign=middle;whiteSpace=wrap;rounded=0;" vertex="1" parent="1">
          <mxGeometry x="500" y="-350" width="80" height="30" as="geometry" />
        </mxCell>
        <mxCell id="iHUM1eOw4FRJ9FHUa8gA-56" value="24x12x256x64" style="text;html=1;align=center;verticalAlign=middle;whiteSpace=wrap;rounded=0;" vertex="1" parent="1">
          <mxGeometry x="110" y="-390" width="60" height="30" as="geometry" />
        </mxCell>
        <mxCell id="iHUM1eOw4FRJ9FHUa8gA-57" value="24x12x256x64" style="text;html=1;align=center;verticalAlign=middle;whiteSpace=wrap;rounded=0;" vertex="1" parent="1">
          <mxGeometry x="310" y="-390" width="60" height="30" as="geometry" />
        </mxCell>
        <mxCell id="iHUM1eOw4FRJ9FHUa8gA-58" value="24x12x256x64" style="text;html=1;align=center;verticalAlign=middle;whiteSpace=wrap;rounded=0;" vertex="1" parent="1">
          <mxGeometry x="510" y="-390" width="60" height="30" as="geometry" />
        </mxCell>
        <mxCell id="iHUM1eOw4FRJ9FHUa8gA-59" value="(Q matmul K&lt;sup&gt;T&lt;/sup&gt;&lt;span style=&quot;background-color: initial;&quot;&gt;)/sqrt(64)&lt;/span&gt;" style="rounded=0;whiteSpace=wrap;html=1;" vertex="1" parent="1">
          <mxGeometry x="160" y="-440" width="240" height="40" as="geometry" />
        </mxCell>
        <mxCell id="iHUM1eOw4FRJ9FHUa8gA-61" value="" style="endArrow=classic;html=1;rounded=0;" edge="1" parent="1">
          <mxGeometry width="50" height="50" relative="1" as="geometry">
            <mxPoint x="280" y="-440" as="sourcePoint" />
            <mxPoint x="280" y="-480" as="targetPoint" />
          </mxGeometry>
        </mxCell>
        <mxCell id="iHUM1eOw4FRJ9FHUa8gA-62" value="24x12x256x256" style="text;html=1;align=center;verticalAlign=middle;whiteSpace=wrap;rounded=0;" vertex="1" parent="1">
          <mxGeometry x="210" y="-470" width="60" height="30" as="geometry" />
        </mxCell>
        <mxCell id="iHUM1eOw4FRJ9FHUa8gA-65" value="" style="endArrow=classic;html=1;rounded=0;entryX=0;entryY=0.5;entryDx=0;entryDy=0;entryPerimeter=0;" edge="1" parent="1">
          <mxGeometry width="50" height="50" relative="1" as="geometry">
            <mxPoint x="40" y="-495.4" as="sourcePoint" />
            <mxPoint x="265" y="-495.4" as="targetPoint" />
          </mxGeometry>
        </mxCell>
        <mxCell id="iHUM1eOw4FRJ9FHUa8gA-66" value="attention_mask 24x256" style="text;html=1;align=center;verticalAlign=middle;whiteSpace=wrap;rounded=0;" vertex="1" parent="1">
          <mxGeometry x="-100" y="-510" width="140" height="30" as="geometry" />
        </mxCell>
        <mxCell id="iHUM1eOw4FRJ9FHUa8gA-68" value="24x1x1x256" style="text;html=1;align=center;verticalAlign=middle;whiteSpace=wrap;rounded=0;" vertex="1" parent="1">
          <mxGeometry x="55" y="-520" width="180" height="30" as="geometry" />
        </mxCell>
        <mxCell id="iHUM1eOw4FRJ9FHUa8gA-70" value="+&lt;div&gt;broadcasting&lt;/div&gt;" style="rounded=0;whiteSpace=wrap;html=1;" vertex="1" parent="1">
          <mxGeometry x="265" y="-510" width="30" height="30" as="geometry" />
        </mxCell>
        <mxCell id="iHUM1eOw4FRJ9FHUa8gA-71" value="" style="endArrow=classic;html=1;rounded=0;" edge="1" parent="1">
          <mxGeometry width="50" height="50" relative="1" as="geometry">
            <mxPoint x="279.74" y="-510" as="sourcePoint" />
            <mxPoint x="280" y="-560" as="targetPoint" />
          </mxGeometry>
        </mxCell>
        <mxCell id="iHUM1eOw4FRJ9FHUa8gA-77" value="" style="edgeStyle=orthogonalEdgeStyle;rounded=0;orthogonalLoop=1;jettySize=auto;html=1;" edge="1" parent="1" source="iHUM1eOw4FRJ9FHUa8gA-75" target="iHUM1eOw4FRJ9FHUa8gA-76">
          <mxGeometry relative="1" as="geometry">
            <Array as="points">
              <mxPoint x="280" y="-630" />
              <mxPoint x="280" y="-630" />
            </Array>
          </mxGeometry>
        </mxCell>
        <mxCell id="iHUM1eOw4FRJ9FHUa8gA-75" value="&lt;div&gt;dropout&lt;/div&gt;softmax" style="rounded=0;whiteSpace=wrap;html=1;" vertex="1" parent="1">
          <mxGeometry x="240" y="-600" width="80" height="40" as="geometry" />
        </mxCell>
        <mxCell id="iHUM1eOw4FRJ9FHUa8gA-76" value="matmul" style="rounded=0;whiteSpace=wrap;html=1;" vertex="1" parent="1">
          <mxGeometry x="240" y="-680" width="400" height="40" as="geometry" />
        </mxCell>
        <mxCell id="iHUM1eOw4FRJ9FHUa8gA-79" value="24x12x256x256" style="text;html=1;align=center;verticalAlign=middle;whiteSpace=wrap;rounded=0;" vertex="1" parent="1">
          <mxGeometry x="210" y="-630" width="60" height="30" as="geometry" />
        </mxCell>
        <mxCell id="iHUM1eOw4FRJ9FHUa8gA-80" value="" style="endArrow=classic;html=1;rounded=0;" edge="1" parent="1">
          <mxGeometry width="50" height="50" relative="1" as="geometry">
            <mxPoint x="440" y="-680" as="sourcePoint" />
            <mxPoint x="440" y="-800" as="targetPoint" />
          </mxGeometry>
        </mxCell>
        <mxCell id="iHUM1eOw4FRJ9FHUa8gA-81" value="24x12x256x64" style="text;html=1;align=center;verticalAlign=middle;whiteSpace=wrap;rounded=0;" vertex="1" parent="1">
          <mxGeometry x="365" y="-710" width="60" height="30" as="geometry" />
        </mxCell>
        <mxCell id="iHUM1eOw4FRJ9FHUa8gA-83" value="合并12个头" style="text;html=1;align=center;verticalAlign=middle;whiteSpace=wrap;rounded=0;" vertex="1" parent="1">
          <mxGeometry x="350" y="-750" width="80" height="30" as="geometry" />
        </mxCell>
        <mxCell id="iHUM1eOw4FRJ9FHUa8gA-84" value="24x256x768" style="text;html=1;align=center;verticalAlign=middle;whiteSpace=wrap;rounded=0;" vertex="1" parent="1">
          <mxGeometry x="370" y="-790" width="60" height="30" as="geometry" />
        </mxCell>
        <mxCell id="iHUM1eOw4FRJ9FHUa8gA-85" value="" style="endArrow=none;html=1;rounded=0;" edge="1" parent="1">
          <mxGeometry width="50" height="50" relative="1" as="geometry">
            <mxPoint x="380" y="-180" as="sourcePoint" />
            <mxPoint x="720" y="-180" as="targetPoint" />
          </mxGeometry>
        </mxCell>
        <mxCell id="iHUM1eOw4FRJ9FHUa8gA-89" value="" style="edgeStyle=orthogonalEdgeStyle;rounded=0;orthogonalLoop=1;jettySize=auto;html=1;" edge="1" parent="1" source="iHUM1eOw4FRJ9FHUa8gA-86" target="iHUM1eOw4FRJ9FHUa8gA-88">
          <mxGeometry relative="1" as="geometry" />
        </mxCell>
        <mxCell id="iHUM1eOw4FRJ9FHUa8gA-86" value="nn.Linear(768,768)" style="rounded=0;whiteSpace=wrap;html=1;" vertex="1" parent="1">
          <mxGeometry x="380" y="-840" width="120" height="40" as="geometry" />
        </mxCell>
        <mxCell id="iHUM1eOw4FRJ9FHUa8gA-87" value="" style="endArrow=classic;html=1;rounded=0;" edge="1" parent="1">
          <mxGeometry width="50" height="50" relative="1" as="geometry">
            <mxPoint x="440" y="-840" as="sourcePoint" />
            <mxPoint x="440" y="-880" as="targetPoint" />
          </mxGeometry>
        </mxCell>
        <mxCell id="iHUM1eOw4FRJ9FHUa8gA-88" value="&lt;div&gt;&lt;span style=&quot;background-color: initial;&quot;&gt;dropout&lt;/span&gt;&lt;/div&gt;" style="rounded=0;whiteSpace=wrap;html=1;" vertex="1" parent="1">
          <mxGeometry x="380" y="-920" width="120" height="40" as="geometry" />
        </mxCell>
        <mxCell id="iHUM1eOw4FRJ9FHUa8gA-95" style="edgeStyle=orthogonalEdgeStyle;rounded=0;orthogonalLoop=1;jettySize=auto;html=1;entryX=0.5;entryY=1;entryDx=0;entryDy=0;" edge="1" parent="1" source="iHUM1eOw4FRJ9FHUa8gA-90" target="iHUM1eOw4FRJ9FHUa8gA-94">
          <mxGeometry relative="1" as="geometry" />
        </mxCell>
        <mxCell id="iHUM1eOw4FRJ9FHUa8gA-90" value="" style="verticalLabelPosition=bottom;verticalAlign=top;html=1;shape=mxgraph.flowchart.or;" vertex="1" parent="1">
          <mxGeometry x="425" y="-990" width="30" height="30" as="geometry" />
        </mxCell>
        <mxCell id="iHUM1eOw4FRJ9FHUa8gA-91" style="edgeStyle=orthogonalEdgeStyle;rounded=0;orthogonalLoop=1;jettySize=auto;html=1;entryX=0.5;entryY=1;entryDx=0;entryDy=0;entryPerimeter=0;" edge="1" parent="1" source="iHUM1eOw4FRJ9FHUa8gA-88" target="iHUM1eOw4FRJ9FHUa8gA-90">
          <mxGeometry relative="1" as="geometry" />
        </mxCell>
        <mxCell id="iHUM1eOw4FRJ9FHUa8gA-92" value="" style="endArrow=none;html=1;rounded=0;" edge="1" parent="1">
          <mxGeometry width="50" height="50" relative="1" as="geometry">
            <mxPoint x="720" y="-180" as="sourcePoint" />
            <mxPoint x="720" y="-975" as="targetPoint" />
          </mxGeometry>
        </mxCell>
        <mxCell id="iHUM1eOw4FRJ9FHUa8gA-93" value="" style="endArrow=classic;html=1;rounded=0;" edge="1" parent="1">
          <mxGeometry width="50" height="50" relative="1" as="geometry">
            <mxPoint x="720" y="-975.37" as="sourcePoint" />
            <mxPoint x="455" y="-975.37" as="targetPoint" />
          </mxGeometry>
        </mxCell>
        <mxCell id="iHUM1eOw4FRJ9FHUa8gA-94" value="LayerNormalization" style="rounded=0;whiteSpace=wrap;html=1;" vertex="1" parent="1">
          <mxGeometry x="380" y="-1060" width="120" height="40" as="geometry" />
        </mxCell>
        <mxCell id="iHUM1eOw4FRJ9FHUa8gA-96" value="" style="rounded=1;whiteSpace=wrap;html=1;strokeColor=#FF0000;dashed=1;fillColor=none;strokeWidth=5;" vertex="1" parent="1">
          <mxGeometry x="80" y="-1070" width="720" height="900" as="geometry" />
        </mxCell>
        <mxCell id="iHUM1eOw4FRJ9FHUa8gA-97" style="edgeStyle=orthogonalEdgeStyle;rounded=0;orthogonalLoop=1;jettySize=auto;html=1;exitX=0.5;exitY=0;exitDx=0;exitDy=0;" edge="1" parent="1" source="iHUM1eOw4FRJ9FHUa8gA-94">
          <mxGeometry relative="1" as="geometry">
            <mxPoint x="439.55" y="-1080" as="sourcePoint" />
            <mxPoint x="440" y="-1120" as="targetPoint" />
            <Array as="points" />
          </mxGeometry>
        </mxCell>
        <mxCell id="iHUM1eOw4FRJ9FHUa8gA-99" value="&lt;font color=&quot;#ff0000&quot;&gt;&lt;b&gt;SubLayer1&lt;/b&gt;&lt;/font&gt;" style="text;html=1;align=center;verticalAlign=middle;whiteSpace=wrap;rounded=0;" vertex="1" parent="1">
          <mxGeometry x="-70" y="-620" width="60" height="30" as="geometry" />
        </mxCell>
        <mxCell id="iHUM1eOw4FRJ9FHUa8gA-107" style="edgeStyle=orthogonalEdgeStyle;rounded=0;orthogonalLoop=1;jettySize=auto;html=1;entryX=0.5;entryY=1;entryDx=0;entryDy=0;" edge="1" parent="1" source="iHUM1eOw4FRJ9FHUa8gA-100" target="iHUM1eOw4FRJ9FHUa8gA-103">
          <mxGeometry relative="1" as="geometry" />
        </mxCell>
        <mxCell id="iHUM1eOw4FRJ9FHUa8gA-100" value="nn.Linear(768, 3072)" style="rounded=0;whiteSpace=wrap;html=1;" vertex="1" parent="1">
          <mxGeometry x="380" y="-1160" width="120" height="40" as="geometry" />
        </mxCell>
        <mxCell id="iHUM1eOw4FRJ9FHUa8gA-101" value="24x256x768" style="text;html=1;align=center;verticalAlign=middle;whiteSpace=wrap;rounded=0;" vertex="1" parent="1">
          <mxGeometry x="370" y="-960" width="60" height="30" as="geometry" />
        </mxCell>
        <mxCell id="iHUM1eOw4FRJ9FHUa8gA-102" value="24x256x768" style="text;html=1;align=center;verticalAlign=middle;whiteSpace=wrap;rounded=0;" vertex="1" parent="1">
          <mxGeometry x="370" y="-1110" width="60" height="30" as="geometry" />
        </mxCell>
        <mxCell id="iHUM1eOw4FRJ9FHUa8gA-103" value="gelu" style="rounded=0;whiteSpace=wrap;html=1;" vertex="1" parent="1">
          <mxGeometry x="380" y="-1240" width="120" height="40" as="geometry" />
        </mxCell>
        <mxCell id="iHUM1eOw4FRJ9FHUa8gA-104" style="edgeStyle=orthogonalEdgeStyle;rounded=0;orthogonalLoop=1;jettySize=auto;html=1;" edge="1" parent="1">
          <mxGeometry relative="1" as="geometry">
            <mxPoint x="439.55" y="-1240" as="sourcePoint" />
            <mxPoint x="440" y="-1280" as="targetPoint" />
            <Array as="points">
              <mxPoint x="439.55" y="-1280" />
              <mxPoint x="439.55" y="-1280" />
            </Array>
          </mxGeometry>
        </mxCell>
        <mxCell id="iHUM1eOw4FRJ9FHUa8gA-105" value="nn.Linear(3072, 768)" style="rounded=0;whiteSpace=wrap;html=1;" vertex="1" parent="1">
          <mxGeometry x="380" y="-1320" width="120" height="40" as="geometry" />
        </mxCell>
        <mxCell id="iHUM1eOw4FRJ9FHUa8gA-108" value="24x256x3072" style="text;html=1;align=center;verticalAlign=middle;whiteSpace=wrap;rounded=0;" vertex="1" parent="1">
          <mxGeometry x="370" y="-1190" width="60" height="30" as="geometry" />
        </mxCell>
        <mxCell id="iHUM1eOw4FRJ9FHUa8gA-109" value="24x256x3072" style="text;html=1;align=center;verticalAlign=middle;whiteSpace=wrap;rounded=0;" vertex="1" parent="1">
          <mxGeometry x="370" y="-1270" width="60" height="30" as="geometry" />
        </mxCell>
        <mxCell id="iHUM1eOw4FRJ9FHUa8gA-110" style="edgeStyle=orthogonalEdgeStyle;rounded=0;orthogonalLoop=1;jettySize=auto;html=1;" edge="1" parent="1">
          <mxGeometry relative="1" as="geometry">
            <mxPoint x="439.55" y="-1320" as="sourcePoint" />
            <mxPoint x="440" y="-1360" as="targetPoint" />
            <Array as="points">
              <mxPoint x="439.55" y="-1360" />
              <mxPoint x="439.55" y="-1360" />
            </Array>
          </mxGeometry>
        </mxCell>
        <mxCell id="iHUM1eOw4FRJ9FHUa8gA-111" value="&lt;div&gt;dropout&lt;/div&gt;nn.Linear(3072, 768)" style="rounded=0;whiteSpace=wrap;html=1;" vertex="1" parent="1">
          <mxGeometry x="380" y="-1400" width="120" height="40" as="geometry" />
        </mxCell>
        <mxCell id="iHUM1eOw4FRJ9FHUa8gA-112" value="24x256x768" style="text;html=1;align=center;verticalAlign=middle;whiteSpace=wrap;rounded=0;" vertex="1" parent="1">
          <mxGeometry x="370" y="-1350" width="60" height="30" as="geometry" />
        </mxCell>
        <mxCell id="iHUM1eOw4FRJ9FHUa8gA-123" value="" style="edgeStyle=orthogonalEdgeStyle;rounded=0;orthogonalLoop=1;jettySize=auto;html=1;" edge="1" parent="1" source="iHUM1eOw4FRJ9FHUa8gA-113" target="iHUM1eOw4FRJ9FHUa8gA-122">
          <mxGeometry relative="1" as="geometry" />
        </mxCell>
        <mxCell id="iHUM1eOw4FRJ9FHUa8gA-113" value="" style="verticalLabelPosition=bottom;verticalAlign=top;html=1;shape=mxgraph.flowchart.or;" vertex="1" parent="1">
          <mxGeometry x="425" y="-1470" width="30" height="30" as="geometry" />
        </mxCell>
        <mxCell id="iHUM1eOw4FRJ9FHUa8gA-114" style="edgeStyle=orthogonalEdgeStyle;rounded=0;orthogonalLoop=1;jettySize=auto;html=1;entryX=0.5;entryY=1;entryDx=0;entryDy=0;entryPerimeter=0;" edge="1" parent="1" source="iHUM1eOw4FRJ9FHUa8gA-111" target="iHUM1eOw4FRJ9FHUa8gA-113">
          <mxGeometry relative="1" as="geometry" />
        </mxCell>
        <mxCell id="iHUM1eOw4FRJ9FHUa8gA-119" value="" style="endArrow=none;html=1;rounded=0;" edge="1" parent="1">
          <mxGeometry width="50" height="50" relative="1" as="geometry">
            <mxPoint x="440" y="-1100" as="sourcePoint" />
            <mxPoint x="600" y="-1100" as="targetPoint" />
          </mxGeometry>
        </mxCell>
        <mxCell id="iHUM1eOw4FRJ9FHUa8gA-120" value="" style="endArrow=none;html=1;rounded=0;" edge="1" parent="1">
          <mxGeometry width="50" height="50" relative="1" as="geometry">
            <mxPoint x="600" y="-1100" as="sourcePoint" />
            <mxPoint x="600" y="-1460" as="targetPoint" />
          </mxGeometry>
        </mxCell>
        <mxCell id="iHUM1eOw4FRJ9FHUa8gA-121" value="" style="endArrow=classic;html=1;rounded=0;entryX=1;entryY=0.5;entryDx=0;entryDy=0;entryPerimeter=0;" edge="1" parent="1" target="iHUM1eOw4FRJ9FHUa8gA-113">
          <mxGeometry width="50" height="50" relative="1" as="geometry">
            <mxPoint x="600" y="-1455" as="sourcePoint" />
            <mxPoint x="580" y="-1350" as="targetPoint" />
          </mxGeometry>
        </mxCell>
        <mxCell id="iHUM1eOw4FRJ9FHUa8gA-122" value="LayerNormalization" style="rounded=0;whiteSpace=wrap;html=1;" vertex="1" parent="1">
          <mxGeometry x="380" y="-1540" width="120" height="40" as="geometry" />
        </mxCell>
        <mxCell id="iHUM1eOw4FRJ9FHUa8gA-124" value="" style="edgeStyle=orthogonalEdgeStyle;rounded=0;orthogonalLoop=1;jettySize=auto;html=1;entryX=0.5;entryY=1;entryDx=0;entryDy=0;" edge="1" parent="1" target="iHUM1eOw4FRJ9FHUa8gA-126">
          <mxGeometry relative="1" as="geometry">
            <mxPoint x="439.73" y="-1540" as="sourcePoint" />
            <mxPoint x="439.73" y="-1570" as="targetPoint" />
          </mxGeometry>
        </mxCell>
        <mxCell id="iHUM1eOw4FRJ9FHUa8gA-125" value="24x256x768" style="text;html=1;align=center;verticalAlign=middle;whiteSpace=wrap;rounded=0;" vertex="1" parent="1">
          <mxGeometry x="370" y="-1570" width="60" height="30" as="geometry" />
        </mxCell>
        <mxCell id="iHUM1eOw4FRJ9FHUa8gA-126" value="文本分类任务，只取256个token中的第一个token" style="rounded=0;whiteSpace=wrap;html=1;" vertex="1" parent="1">
          <mxGeometry x="380" y="-1760" width="120" height="50" as="geometry" />
        </mxCell>
        <mxCell id="iHUM1eOw4FRJ9FHUa8gA-127" value="" style="rounded=1;whiteSpace=wrap;html=1;strokeWidth=5;dashed=1;strokeColor=#FF0000;fillColor=none;" vertex="1" parent="1">
          <mxGeometry x="80" y="-1585" width="720" height="495" as="geometry" />
        </mxCell>
        <mxCell id="iHUM1eOw4FRJ9FHUa8gA-128" value="&lt;font color=&quot;#ff0000&quot;&gt;&lt;b&gt;SubLayer2&lt;/b&gt;&lt;/font&gt;" style="text;html=1;align=center;verticalAlign=middle;whiteSpace=wrap;rounded=0;" vertex="1" parent="1">
          <mxGeometry x="-60" y="-1395" width="60" height="30" as="geometry" />
        </mxCell>
        <mxCell id="iHUM1eOw4FRJ9FHUa8gA-129" value="b" style="rounded=0;whiteSpace=wrap;html=1;strokeColor=#7F00FF;fillColor=none;dashed=1;strokeWidth=5;" vertex="1" parent="1">
          <mxGeometry x="-200" y="-1600" width="1120" height="1440" as="geometry" />
        </mxCell>
        <mxCell id="iHUM1eOw4FRJ9FHUa8gA-130" value="&lt;font style=&quot;font-size: 40px;&quot; color=&quot;#7f00ff&quot;&gt;x12&lt;/font&gt;" style="text;html=1;align=center;verticalAlign=middle;whiteSpace=wrap;rounded=0;" vertex="1" parent="1">
          <mxGeometry x="-420" y="-1050" width="220" height="170" as="geometry" />
        </mxCell>
        <mxCell id="iHUM1eOw4FRJ9FHUa8gA-134" value="" style="endArrow=classic;html=1;rounded=0;" edge="1" parent="1">
          <mxGeometry width="50" height="50" relative="1" as="geometry">
            <mxPoint x="440" y="-1760" as="sourcePoint" />
            <mxPoint x="440" y="-1800" as="targetPoint" />
          </mxGeometry>
        </mxCell>
        <mxCell id="iHUM1eOw4FRJ9FHUa8gA-136" value="24x768" style="text;html=1;align=center;verticalAlign=middle;whiteSpace=wrap;rounded=0;" vertex="1" parent="1">
          <mxGeometry x="380" y="-1790" width="60" height="30" as="geometry" />
        </mxCell>
        <mxCell id="iHUM1eOw4FRJ9FHUa8gA-137" value="nn.Linear(768, 768)" style="rounded=0;whiteSpace=wrap;html=1;" vertex="1" parent="1">
          <mxGeometry x="380" y="-1850" width="120" height="50" as="geometry" />
        </mxCell>
        <mxCell id="iHUM1eOw4FRJ9FHUa8gA-138" value="24x768" style="text;html=1;align=center;verticalAlign=middle;whiteSpace=wrap;rounded=0;" vertex="1" parent="1">
          <mxGeometry x="380" y="-1880" width="60" height="30" as="geometry" />
        </mxCell>
        <mxCell id="iHUM1eOw4FRJ9FHUa8gA-139" value="" style="endArrow=classic;html=1;rounded=0;" edge="1" parent="1">
          <mxGeometry width="50" height="50" relative="1" as="geometry">
            <mxPoint x="440" y="-1850" as="sourcePoint" />
            <mxPoint x="440" y="-1890" as="targetPoint" />
          </mxGeometry>
        </mxCell>
        <mxCell id="iHUM1eOw4FRJ9FHUa8gA-140" value="tanh" style="rounded=0;whiteSpace=wrap;html=1;" vertex="1" parent="1">
          <mxGeometry x="380" y="-1940" width="120" height="50" as="geometry" />
        </mxCell>
        <mxCell id="iHUM1eOw4FRJ9FHUa8gA-141" value="" style="endArrow=classic;html=1;rounded=0;" edge="1" parent="1">
          <mxGeometry width="50" height="50" relative="1" as="geometry">
            <mxPoint x="439.43" y="-1940" as="sourcePoint" />
            <mxPoint x="439.43" y="-1980" as="targetPoint" />
          </mxGeometry>
        </mxCell>
        <mxCell id="iHUM1eOw4FRJ9FHUa8gA-143" value="" style="rounded=1;whiteSpace=wrap;html=1;strokeColor=#FF0000;strokeWidth=5;dashed=1;fillColor=none;" vertex="1" parent="1">
          <mxGeometry x="320" y="-1960" width="240" height="320" as="geometry" />
        </mxCell>
        <mxCell id="iHUM1eOw4FRJ9FHUa8gA-145" value="&lt;b&gt;&lt;font color=&quot;#ff0000&quot;&gt;BERTPooler&lt;/font&gt;&lt;/b&gt;" style="text;html=1;align=center;verticalAlign=middle;whiteSpace=wrap;rounded=0;" vertex="1" parent="1">
          <mxGeometry x="190" y="-1870" width="60" height="30" as="geometry" />
        </mxCell>
        <mxCell id="iHUM1eOw4FRJ9FHUa8gA-147" value="nn.Linear(768, 10)" style="rounded=0;whiteSpace=wrap;html=1;" vertex="1" parent="1">
          <mxGeometry x="380" y="-2030" width="120" height="50" as="geometry" />
        </mxCell>
        <mxCell id="iHUM1eOw4FRJ9FHUa8gA-148" value="" style="endArrow=classic;html=1;rounded=0;" edge="1" parent="1">
          <mxGeometry width="50" height="50" relative="1" as="geometry">
            <mxPoint x="440" y="-2030" as="sourcePoint" />
            <mxPoint x="440" y="-2080" as="targetPoint" />
          </mxGeometry>
        </mxCell>
        <mxCell id="iHUM1eOw4FRJ9FHUa8gA-149" value="24x10" style="text;html=1;align=center;verticalAlign=middle;whiteSpace=wrap;rounded=0;" vertex="1" parent="1">
          <mxGeometry x="380" y="-2070" width="60" height="30" as="geometry" />
        </mxCell>
        <mxCell id="iHUM1eOw4FRJ9FHUa8gA-151" value="CrossEntropyLoss" style="rounded=0;whiteSpace=wrap;html=1;" vertex="1" parent="1">
          <mxGeometry x="380" y="-2130" width="120" height="50" as="geometry" />
        </mxCell>
        <mxCell id="iHUM1eOw4FRJ9FHUa8gA-152" value="" style="endArrow=classic;html=1;rounded=0;" edge="1" parent="1">
          <mxGeometry width="50" height="50" relative="1" as="geometry">
            <mxPoint x="440" y="-2180" as="sourcePoint" />
            <mxPoint x="440" y="-2130" as="targetPoint" />
          </mxGeometry>
        </mxCell>
        <mxCell id="iHUM1eOw4FRJ9FHUa8gA-154" value="" style="endArrow=classic;html=1;rounded=0;" edge="1" parent="1">
          <mxGeometry width="50" height="50" relative="1" as="geometry">
            <mxPoint x="380" y="-2100" as="sourcePoint" />
            <mxPoint x="320" y="-2100" as="targetPoint" />
          </mxGeometry>
        </mxCell>
        <mxCell id="iHUM1eOw4FRJ9FHUa8gA-155" value="Loss" style="text;html=1;align=center;verticalAlign=middle;whiteSpace=wrap;rounded=0;" vertex="1" parent="1">
          <mxGeometry x="270" y="-2120" width="60" height="30" as="geometry" />
        </mxCell>
        <mxCell id="iHUM1eOw4FRJ9FHUa8gA-156" value="Label=1x24" style="text;html=1;align=center;verticalAlign=middle;whiteSpace=wrap;rounded=0;" vertex="1" parent="1">
          <mxGeometry x="390" y="-2210" width="60" height="30" as="geometry" />
        </mxCell>
      </root>
    </mxGraphModel>
  </diagram>
</mxfile>
